<svg xmlns="http://www.w3.org/2000/svg" viewBox="0 0 388.18 102.29">
    <defs>
        <style>
            .text {
                fill: #fff;
            }
            #stroke-1 {
                fill: #6a34ab;
            }
            #stroke-2-shadow {
                fill: #541e89;
            }
            #stroke-2, #stroke-4-shadow {
                fill: #8540c4;
            }
            #stroke-3 {
                fill: #a656d2;
            }
            #stroke-4, #stroke-6-shadow {
                fill: #eb8e2a;
            }
            #stroke-5 {
                fill: #feb635;
            }
            #stroke-6 {
                fill: #fde06b;
            }
            * {
                animation-iteration-count: 1;
                animation-duration: 0.8s;
                animation-timing-function: ease-in-out;
            }
            #stroke-1 {
                animation-name: stroke-1;
            }
            @keyframes stroke-1 {
                0% {
                    clip-path: ellipse(22.54% 18.86% at 89.81% 119.60%);
                }
                15%,
                100% {
                    clip-path: ellipse(124.36% 54.12% at 43.53% 50.05%);
                }
            }
            #stroke-2 {
                animation-name: stroke-2;
            }
            @keyframes stroke-2 {
                0%,
                15% {
                    clip-path: ellipse(15.17% 5.83% at 69.88% -7.89%);
                }
                30%,
                100% {
                    clip-path: ellipse(171.86% 53.97% at 46.01% 50.37%);
                }
            }
            #stroke-2-shadow {
                animation-name: stroke-2-shadow;
            }
            @keyframes stroke-2-shadow {
                0%,
                15% {
                    clip-path: ellipse(23.12% 9.60% at 55.46% -15.79%);
                }
                30%,
                100% {
                    clip-path: ellipse(244.15% 68.24% at 44.12% 63.40%);
                }
            }
            #stroke-3 {
                animation-name: stroke-3;
            }
            @keyframes stroke-3 {
                0%,
                30% {
                    clip-path: ellipse(10.64% 2.2% at 79.20% 102.43%);
                }
                45%,
                100% {
                    clip-path: ellipse(234.59% 52.09% at 63.55% 49.56%);
                }
            }
            #stroke-4 {
                animation-name: stroke-4;
            }
            @keyframes stroke-4 {
                0%,
                55% {
                    clip-path: ellipse(10.04% 4.15% at 74.57% -4.24%);
                }
                70%,
                100% {
                    clip-path: ellipse(202.09% 52.33% at 48.90% 50.92%);
                }
            }
            #stroke-4-shadow {
                animation-name: stroke-4-shadow;
            }
            @keyframes stroke-4-shadow {
                0%,
                55% {
                    clip-path: ellipse(23.81% 5.02% at 66.50% -9.19%);
                }
                70%,
                100% {
                    clip-path: ellipse(351.57% 81.21% at 7.7% 76.19%);
                }
            }
            #stroke-5 {
                animation-name: stroke-5;
            }
            @keyframes stroke-5 {
                0%,
                70% {
                    clip-path: ellipse(11.22% 3.97% at 77.87% 104.97%);
                }
                85%,
                100% {
                    clip-path: ellipse(161.1% 52.83% at 52.89% 49.4%);
                }
            }
            #stroke-6, #stroke-6-shadow {
                animation-name: stroke-6;
            }
            @keyframes stroke-6 {
                0%,
                85% {
                    clip-path: ellipse(11.48% 3.27% at 73.50% -4.10%);
                }
                100% {
                    clip-path: ellipse(253.42% 51.44% at 47.52% 49.85%);
                }
            }
            #stroke-6-shadow {
                animation-name: stroke-6-shadow;
            }
            @keyframes stroke-6-shadow {
                0%,
                85% {
                    clip-path: ellipse(21.19% 4.5% at 69.54% -4.87%);
                }
                100% {
                    clip-path: ellipse(518.49% 78.84% at 1.08% 75.78%);
                }
            }
        </style>
    </defs>
    <path class="text" d="M142.549,71.636l3.135-40.23a34.817,34.817,0,0,1,6.153-.473,35.835,35.835,0,0,1,6.212.473l3.491,14.5q2.07,9.82,2.189,10.707h.414q.236-1.477,2.189-10.707l3.549-14.5a34.8,34.8,0,0,1,6.153-.473,35.815,35.815,0,0,1,6.211.473l3.136,40.23a18.491,18.491,0,0,1-4.525.473,26.692,26.692,0,0,1-4.408-.3L175.5,55.367q-.414-9.82-.473-13.667h-.355l-5.856,24.078a33.733,33.733,0,0,1-9.762,0l-5.8-24.078h-.415q0,5.266-.472,13.667l-.887,16.446a26.725,26.725,0,0,1-4.408.3A18.488,18.488,0,0,1,142.549,71.636Z" />
    <path class="text" d="M201.591,49.035V71.754q-1.007.177-2.189.267c-.791.059-1.6.088-2.426.088s-1.648-.029-2.455-.088a22.119,22.119,0,0,1-2.219-.267V52.172q0-3.429-2.781-3.431h-.887a10.894,10.894,0,0,1-.355-3.136,13.339,13.339,0,0,1,.355-3.313q1.539-.117,2.84-.208T193.841,42h1.3a6.066,6.066,0,0,1,4.733,1.894A7.373,7.373,0,0,1,201.591,49.035ZM191.238,30.343a9.12,9.12,0,0,1,4.437-.949,8.246,8.246,0,0,1,4.318.949,8.64,8.64,0,0,1,0,6.86,9.78,9.78,0,0,1-4.5.89,8.333,8.333,0,0,1-4.259-.89,8.629,8.629,0,0,1,0-6.86Z" />
    <path class="text" d="M234.01,52.231V64.359a9.937,9.937,0,0,0,1.42,5.856,7.79,7.79,0,0,1-5.383,2.012q-3.078,0-4.2-1.419a6.894,6.894,0,0,1-1.124-4.32v-12.6a6.258,6.258,0,0,0-.533-2.957,2.165,2.165,0,0,0-2.07-.946,5.258,5.258,0,0,0-2.012.473A8.374,8.374,0,0,0,217.8,52V71.754q-1.007.177-2.189.267t-2.426.088q-1.242,0-2.425-.088t-2.19-.267V42.234l.414-.414h3.492a4.77,4.77,0,0,1,4.85,3.548q4.14-3.669,8.224-3.668a7.4,7.4,0,0,1,6.3,2.869A12.44,12.44,0,0,1,234.01,52.231Z" />
    <path class="text" d="M251.107,41.641a12.411,12.411,0,0,1,5.5,1.3V28.625l.356-.414h3.609q2.839,0,3.934,1.242t1.094,4.32V63.235q0,3.135,1.656,4.26a9.907,9.907,0,0,1-1.123,2.661,6.783,6.783,0,0,1-1.715,2.071,7.192,7.192,0,0,1-6.332-3.313,11.345,11.345,0,0,1-8.518,3.727,8.544,8.544,0,0,1-7.632-4.141q-2.661-4.138-2.663-11.359a20.985,20.985,0,0,1,.918-6.42,15.192,15.192,0,0,1,2.514-4.878,11.268,11.268,0,0,1,3.757-3.107A10.119,10.119,0,0,1,251.107,41.641Zm1.152,23.546a5.562,5.562,0,0,0,4.35-2.308V49.925a8.5,8.5,0,0,0-3.873-1.421q-4.055,0-4.054,8.875Q248.682,65.188,252.259,65.187Z" />
    <path class="text" d="M298.021,52.231V64.359q0,3.963,1.478,5.856a7.866,7.866,0,0,1-5.443,2.012q-3.076,0-4.2-1.419a6.894,6.894,0,0,1-1.125-4.32v-12.6a6.273,6.273,0,0,0-.532-2.957,2.166,2.166,0,0,0-2.07-.946,5.258,5.258,0,0,0-2.012.473A8.392,8.392,0,0,0,281.81,52V71.754a28.648,28.648,0,0,1-8.992,0V28.625l.414-.414h3.55q2.84,0,3.934,1.242t1.094,4.32v11.18a12.521,12.521,0,0,1,7.928-3.253,7.217,7.217,0,0,1,6.123,2.869A12.44,12.44,0,0,1,298.021,52.231Z" />
    <path class="text" d="M330.027,67.5a9.881,9.881,0,0,1-1.124,2.661,6.742,6.742,0,0,1-1.716,2.071,7.8,7.8,0,0,1-6.389-3.136,12.094,12.094,0,0,1-8.342,3.55,10.116,10.116,0,0,1-4.022-.74,8.7,8.7,0,0,1-2.9-1.98,8.165,8.165,0,0,1-1.774-2.871,9.852,9.852,0,0,1-.591-3.4,10.27,10.27,0,0,1,.916-4.467,8.938,8.938,0,0,1,2.515-3.195,11.12,11.12,0,0,1,3.727-1.921,15.5,15.5,0,0,1,4.555-.652q1.359,0,2.4.029c.69.02,1.292.052,1.805.089V52.4q0-3.771-3.846-3.774-2.484,0-8.7,1.953-1.774-2.068-2.248-6.449,1.421-.532,3.166-1t3.578-.829q1.834-.356,3.609-.563a28.076,28.076,0,0,1,3.2-.206,13.574,13.574,0,0,1,3.992.591,9.6,9.6,0,0,1,3.373,1.8,8.587,8.587,0,0,1,2.307,3.134,11.22,11.22,0,0,1,.857,4.587V63.649A4.307,4.307,0,0,0,330.027,67.5Zm-17.866-4.437q0,2.778,3.194,2.781a6.156,6.156,0,0,0,3.728-1.717V59.39c-.79-.039-1.449-.068-1.982-.091s-.938-.029-1.213-.029Q312.161,59.27,312.161,63.058Z" />
    <path class="text" d="M332.925,69.742a10.084,10.084,0,0,1,.8-3.371,9.134,9.134,0,0,1,1.745-2.9,18.3,18.3,0,0,0,8.224,2.485,4.742,4.742,0,0,0,2.543-.564,1.709,1.709,0,0,0,.887-1.507q0-1.774-2.721-2.663l-3.254-1.242q-7.4-2.721-7.394-8.875a8.86,8.86,0,0,1,3.1-7.128,12.528,12.528,0,0,1,8.371-2.634,25.237,25.237,0,0,1,5.739.74,24.054,24.054,0,0,1,5.147,1.747,8.436,8.436,0,0,1-.651,3.636,6.147,6.147,0,0,1-1.893,2.811,21.123,21.123,0,0,0-8.283-2.247,2.689,2.689,0,0,0-1.8.532,1.712,1.712,0,0,0-.621,1.362q0,1.419,2.248,2.247l3.668,1.3q7.866,2.783,7.867,9.526a8.543,8.543,0,0,1-3.253,7.04q-3.255,2.6-9.288,2.6A22.394,22.394,0,0,1,332.925,69.742Z" />
    <path class="text" d="M386.7,52.231V64.359q0,3.963,1.478,5.856a7.866,7.866,0,0,1-5.443,2.012q-3.077,0-4.2-1.419a6.894,6.894,0,0,1-1.125-4.32v-12.6a6.273,6.273,0,0,0-.532-2.957,2.166,2.166,0,0,0-2.07-.946,5.258,5.258,0,0,0-2.012.473A8.392,8.392,0,0,0,370.491,52V71.754a28.648,28.648,0,0,1-8.992,0V28.625l.414-.414h3.55q2.839,0,3.934,1.242t1.094,4.32v11.18a12.521,12.521,0,0,1,7.928-3.253,7.217,7.217,0,0,1,6.123,2.869A12.44,12.44,0,0,1,386.7,52.231Z" />
    <path id="stroke-1" d="M100.177,71.115l-.117.033-.116.034a28.257,28.257,0,0,1-15.58,0l-.117-.034-.116-.033-2.57-4.826a99.994,99.994,0,0,1-8.381-21.31l-1.026-3.86H88.2l1.026,3.86a99.994,99.994,0,0,0,8.381,21.31Z" />
    <path id="stroke-2-shadow" d="M81.561,66.289l2.57,4.826.116.033.117.034c.224.064.452.11.677.169L88.2,41.119H72.154l1.41,5.15A99.916,99.916,0,0,0,81.561,66.289Z" />
    <path id="stroke-2" d="M78.2,81.119H62.154l2.023-5.779a160.026,160.026,0,0,0,7.212-29.121l.765-5.1h0a56.357,56.357,0,0,1,16.046,0h0l-.765,5.1A160.026,160.026,0,0,1,80.223,75.34Z" />
    <path id="stroke-3" d="M78.2,81.119h0a56.455,56.455,0,0,1-16.046,0h0l-4.37-13.457Q49.17,41.137,43.047,13.9L40.177,1.128h0a29.1,29.1,0,0,1,16.046,0h0L59.093,13.9Q65.209,41.108,73.83,67.662Z" />
    <path id="stroke-4-shadow" d="M57.784,67.662l1.08,3.327,4.181-39.844H47.225Q51.94,49.56,57.784,67.662Z" />
    <path id="stroke-4" d="M48.2,91.119H32.154l2.643-8.4A359.9,359.9,0,0,0,45.62,38.868l1.4-7.723.059-.017.058-.016.058-.017.058-.017a28.264,28.264,0,0,1,15.58,0l.059.017.058.017.058.016.058.017-1.4,7.723A359.9,359.9,0,0,1,50.843,82.716Z" />
    <path id="stroke-5" d="M48.2,91.119h0a56.357,56.357,0,0,1-16.046,0h0L27.009,76.113a400.062,400.062,0,0,1-11.565-40.6l-3.29-14.4H28.2l3.29,14.4a400.062,400.062,0,0,0,11.565,40.6Z" />
    <path id="stroke-6-shadow" d="M26.41,74.289l1.79-53.17H12.154l3.29,14.4A400.005,400.005,0,0,0,26.41,74.289Z" />
    <path id="stroke-6" d="M16.046,101.119l-.117.033-.116.034a28.036,28.036,0,0,1-15.58,0l-.116-.034L0,101.119,2.273,89.864q5.8-28.728,8.777-57.919l1.1-10.826h0a56.357,56.357,0,0,1,16.046,0h0L27.1,31.945Q24.124,61.1,18.319,89.864Z" />
</svg>

